<?xml version="1.0" standalone="no"?>
<!DOCTYPE svg PUBLIC "-//W3C//DTD SVG 20010904//EN"
 "http://www.w3.org/TR/2001/REC-SVG-20010904/DTD/svg10.dtd">
<svg version="1.0" xmlns="http://www.w3.org/2000/svg"
 width="1200.000000pt" height="1200.000000pt" viewBox="0 0 1200.000000 1200.000000"
 preserveAspectRatio="xMidYMid meet">
<metadata>
Created by potrace 1.14, written by Peter Selinger 2001-2017
</metadata>
<g transform="translate(0.000000,1200.000000) scale(0.100000,-0.100000)"
fill="#000000" stroke="none">
<path d="M6520 9747 c-52 -19 -113 -42 -135 -51 -22 -9 -40 -16 -40 -16 0 1
-11 -3 -25 -9 -14 -5 -77 -31 -140 -56 -63 -25 -127 -52 -142 -60 -14 -8 -33
-15 -42 -15 -9 0 -16 -4 -16 -10 0 -6 -3 -9 -7 -8 -5 1 -26 -7 -48 -17 -22
-10 -42 -19 -45 -20 -18 -7 -150 -70 -365 -175 -297 -145 -342 -166 -386 -175
-19 -3 -53 -13 -75 -22 -29 -10 -48 -12 -60 -5 -27 13 -87 6 -131 -17 -21 -10
-41 -19 -45 -20 -4 -1 -29 -11 -55 -22 -27 -11 -82 -34 -123 -51 -41 -16 -86
-43 -100 -58 -25 -27 -97 -55 -170 -66 -19 -2 -44 -7 -56 -9 -12 -3 -39 -7
-60 -10 -102 -16 -163 -36 -266 -87 -46 -23 -85 -42 -88 -42 -3 -1 -50 -23
-105 -50 -55 -26 -127 -61 -160 -76 -33 -15 -94 -43 -135 -63 -225 -105 -356
-167 -460 -215 -36 -16 -105 -49 -155 -72 -49 -24 -96 -44 -103 -46 -20 -4
-62 -33 -62 -43 0 -5 15 -19 33 -30 18 -11 46 -31 62 -45 35 -30 43 -31 90
-12 19 8 35 13 35 11 0 -2 19 3 43 11 44 16 237 74 347 104 36 10 99 28 140
40 41 12 84 23 95 25 11 3 58 14 105 25 88 22 305 65 375 74 22 4 51 8 65 11
28 6 84 13 220 30 49 7 84 25 98 52 5 10 15 48 22 86 7 37 16 70 21 73 5 3 9
13 9 24 0 26 26 33 26 6 1 -20 10 -141 19 -241 3 -27 6 -71 8 -97 3 -26 12
-59 21 -73 15 -23 63 -59 91 -68 5 -2 10 -103 12 -243 1 -131 4 -382 7 -557
l4 -319 28 -29 c46 -48 99 -80 125 -76 49 9 89 32 99 58 16 39 18 57 25 344 4
143 8 289 9 325 1 36 5 71 9 78 5 6 4 12 0 12 -11 0 -5 122 7 134 5 5 21 -1
37 -14 15 -12 244 -165 508 -341 264 -175 480 -323 480 -328 0 -5 -38 -39 -85
-77 -47 -37 -87 -70 -90 -74 -3 -3 -23 -18 -45 -35 -22 -16 -45 -34 -51 -40
-6 -5 -28 -23 -49 -40 -60 -49 -119 -95 -135 -108 -169 -134 -207 -163 -216
-172 -6 -5 -46 -37 -89 -70 -43 -33 -85 -67 -94 -75 -9 -8 -50 -42 -91 -75
-147 -118 -197 -161 -319 -280 -130 -125 -159 -174 -155 -255 8 -131 11 -160
23 -173 7 -9 13 -59 15 -126 3 -110 3 -111 -19 -111 -13 0 -25 7 -29 15 -3 8
-16 15 -29 15 -13 0 -27 4 -33 9 -5 5 -29 11 -54 15 -25 3 -54 7 -65 10 -39 8
-201 38 -230 43 -16 2 -37 6 -45 9 -8 3 -28 8 -45 11 -16 2 -86 15 -155 28
-69 14 -140 27 -159 30 -19 3 -37 8 -40 10 -4 2 -25 6 -47 9 -22 4 -51 9 -64
12 -41 8 -199 38 -270 50 -14 3 -32 7 -40 9 -8 2 -31 7 -50 10 -43 7 -242 42
-290 51 -19 3 -44 8 -55 10 -11 2 -33 6 -50 10 -60 15 -247 7 -315 -12 -53
-16 -68 -25 -87 -54 -27 -42 -44 -62 -48 -58 -2 2 -5 40 -8 85 -6 93 -14 112
-62 149 -19 14 -35 31 -35 36 0 5 -16 25 -35 45 -24 25 -32 40 -25 47 5 5 10
22 10 38 0 21 10 34 48 60 26 18 50 32 55 30 4 -1 7 3 7 10 0 6 3 8 7 5 3 -4
12 -2 19 4 21 17 154 14 244 -6 14 -3 48 -8 77 -11 l52 -6 68 139 c90 180 177
341 253 463 5 8 21 35 36 60 27 46 143 211 154 220 3 3 19 23 36 45 16 22 35
46 42 53 14 16 16 42 2 42 -5 0 -33 11 -62 24 -86 39 -100 40 -149 4 -55 -40
-57 -41 -99 -77 -19 -17 -82 -67 -140 -112 -119 -91 -149 -115 -269 -214 -93
-76 -127 -104 -145 -120 -21 -19 -161 -131 -182 -146 -85 -58 -149 -137 -179
-224 -18 -50 -44 -80 -149 -168 -95 -81 -167 -161 -192 -213 -13 -29 -44 -72
-67 -96 -100 -102 -230 -219 -318 -285 -52 -39 -132 -112 -179 -163 -47 -51
-92 -100 -101 -109 -23 -24 -170 -199 -209 -251 -19 -25 -39 -49 -43 -55 -5
-5 -46 -62 -93 -125 -46 -63 -88 -120 -93 -126 -4 -5 -13 -20 -20 -31 -6 -12
-17 -28 -26 -36 -36 -37 -25 -42 94 -42 l114 -1 91 93 c50 51 161 165 246 254
198 208 500 513 501 508 0 -2 2 -33 4 -69 2 -35 8 -66 14 -68 6 -2 24 -32 40
-67 16 -35 38 -68 48 -74 59 -34 62 -44 89 -296 8 -79 22 -107 64 -127 49 -23
114 -36 136 -27 11 3 36 23 55 44 31 31 37 44 37 83 1 25 -2 51 -7 56 -5 6 -7
36 -6 66 2 30 3 70 4 88 1 21 7 35 19 39 42 15 101 44 154 76 52 31 193 82
258 94 14 2 39 7 55 12 57 15 147 5 325 -35 14 -3 34 -7 45 -9 11 -2 58 -11
105 -20 47 -9 96 -18 110 -21 52 -8 66 -11 90 -17 14 -4 39 -8 55 -11 17 -2
50 -9 75 -14 25 -6 65 -14 90 -17 24 -4 48 -8 51 -11 4 -2 24 -6 44 -10 21 -3
47 -8 59 -11 11 -3 28 -6 36 -7 8 -2 40 -8 70 -14 30 -6 67 -14 83 -17 15 -3
39 -7 55 -10 15 -3 50 -10 78 -16 28 -5 64 -12 80 -15 16 -3 48 -9 72 -15 23
-5 59 -12 78 -15 44 -7 52 -8 135 -28 37 -9 84 -17 105 -20 22 -2 46 -6 55
-10 9 -4 21 -1 28 8 17 21 51 8 52 -20 1 -13 3 -28 4 -34 1 -5 3 -15 4 -20 1
-14 50 -62 84 -83 22 -14 27 -25 28 -60 1 -104 14 -139 65 -185 44 -39 254
-152 283 -152 6 0 19 -4 29 -10 18 -11 128 -52 202 -76 25 -8 54 -19 65 -24
17 -7 100 -31 128 -36 4 -1 8 -2 10 -3 1 -1 28 -4 61 -7 69 -6 147 14 224 57
29 16 57 27 62 24 5 -3 22 -8 38 -9 16 -2 58 -13 94 -24 156 -48 255 -58 323
-32 24 9 36 8 67 -7 21 -10 38 -21 38 -25 0 -5 6 -8 14 -8 8 0 16 -3 18 -7 2
-5 24 -19 51 -33 26 -13 47 -28 47 -32 0 -5 5 -8 11 -8 6 0 30 -13 54 -30 24
-16 46 -30 49 -30 3 0 48 -27 101 -60 53 -33 100 -60 106 -60 5 0 9 -4 9 -10
0 -5 5 -10 11 -10 6 0 29 -12 52 -27 47 -31 51 -33 162 -100 43 -26 95 -58
115 -70 19 -12 45 -28 58 -35 74 -43 301 -182 321 -197 l24 -18 -54 -30 c-47
-26 -236 -137 -279 -164 -14 -8 -355 -208 -425 -249 -16 -9 -60 -36 -98 -58
-37 -23 -72 -42 -77 -42 -6 0 -10 -4 -10 -10 0 -5 -5 -10 -10 -10 -6 0 -36
-16 -66 -35 -30 -19 -56 -35 -58 -35 -3 0 -41 -23 -86 -50 -45 -28 -83 -50
-86 -50 -2 0 -28 -16 -58 -35 -30 -19 -60 -35 -66 -35 -5 0 -10 -4 -10 -10 0
-5 -4 -10 -8 -10 -15 0 -276 -160 -284 -173 -4 -9 12 -30 45 -59 29 -25 72
-64 97 -87 25 -22 48 -41 51 -41 5 0 146 59 214 90 37 17 320 128 365 143 25
8 70 25 100 37 30 12 60 23 65 24 6 1 69 22 140 45 72 24 135 44 140 45 6 1
35 10 65 19 57 16 279 75 315 82 11 3 82 18 158 35 76 16 148 30 161 30 12 0
26 3 30 7 3 4 21 8 40 10 30 2 34 -1 44 -35 18 -61 75 -117 158 -158 41 -21
78 -42 82 -48 10 -13 34 -91 37 -123 2 -12 6 -26 9 -31 3 -5 8 -45 11 -88 12
-163 17 -171 108 -218 60 -30 122 -34 173 -10 37 18 46 37 50 104 1 25 5 110
9 190 10 211 10 212 36 230 49 32 88 72 107 110 16 33 18 52 13 108 -9 111 -5
256 15 433 8 70 -7 119 -51 168 -18 20 -35 46 -39 59 -4 12 -12 22 -17 22 -5
0 -9 7 -9 15 0 8 4 15 8 15 11 0 32 40 36 65 3 24 57 54 151 84 38 12 82 29
97 37 15 8 28 11 28 7 0 -5 4 -3 8 2 4 6 30 21 57 35 28 14 56 30 63 37 7 7
17 13 22 13 5 0 53 28 107 61 54 34 112 70 128 79 17 10 140 86 274 169 134
83 247 151 251 151 5 0 10 3 12 8 2 4 59 41 128 82 69 41 127 77 130 80 7 7
40 28 65 40 11 6 32 18 47 28 15 9 81 50 148 90 102 62 119 76 109 88 -17 21
-69 41 -126 50 -68 11 -66 11 -88 0 -11 -5 -24 -11 -30 -12 -5 -1 -39 -15 -75
-32 -36 -16 -90 -40 -120 -53 -30 -12 -58 -27 -61 -32 -3 -5 -9 -8 -13 -7 -17
5 -575 -273 -796 -395 -85 -48 -182 -101 -215 -119 -33 -19 -113 -64 -178
-102 -103 -60 -117 -71 -113 -90 8 -32 -85 -93 -134 -89 -35 3 -69 -12 -293
-134 l-78 -42 -27 28 c-60 62 -136 116 -332 233 -113 67 -227 135 -253 151
-27 16 -53 29 -58 29 -5 0 -9 5 -9 10 0 6 -4 10 -9 10 -5 0 -80 42 -167 93
-88 51 -211 122 -274 157 -63 35 -116 68 -118 72 -2 4 -8 8 -12 8 -5 0 -57 29
-115 65 -58 35 -105 61 -105 57 0 -4 -7 2 -15 12 -8 11 -15 17 -15 14 0 -4
-26 9 -57 28 -32 19 -70 38 -85 41 -50 10 -69 57 -37 92 11 12 22 37 25 57 4
38 8 41 135 154 65 57 132 117 179 160 15 14 61 54 101 90 121 107 331 316
377 375 24 30 49 70 57 89 14 33 18 50 31 131 3 22 15 85 25 140 11 55 21 109
23 120 12 62 15 78 18 81 19 19 176 -11 238 -45 8 -4 26 -7 39 -6 14 1 43 -4
66 -10 47 -15 83 -4 127 37 39 35 105 168 120 238 l12 61 35 -5 c20 -2 42 -14
51 -26 17 -23 35 -28 128 -35 29 -2 85 -6 125 -10 40 -4 90 -8 112 -10 56 -5
177 -14 260 -20 64 -4 151 -12 230 -20 17 -1 68 -6 115 -9 47 -4 103 -9 125
-11 22 -3 72 -7 110 -11 39 -3 90 -7 115 -9 25 -2 74 -7 110 -9 36 -3 88 -8
115 -10 28 -3 88 -8 135 -11 47 -3 103 -8 125 -10 22 -2 72 -6 110 -10 39 -3
88 -8 110 -10 295 -28 353 -24 453 31 28 16 42 19 43 11 1 -17 4 -30 27 -122
12 -44 23 -93 26 -109 3 -16 10 -54 17 -85 6 -30 13 -64 14 -75 2 -12 6 -32 9
-46 3 -14 8 -43 11 -65 3 -22 7 -51 10 -65 3 -14 7 -45 10 -70 13 -121 18
-141 35 -150 10 -5 20 -6 24 -3 3 3 6 -29 7 -73 0 -43 1 -126 2 -183 2 -88 -1
-108 -16 -128 -13 -17 -18 -40 -18 -89 0 -92 16 -107 126 -119 106 -13 147
-12 175 2 43 21 54 40 56 101 1 31 5 111 8 177 6 126 13 311 21 560 4 136 12
331 19 492 3 60 4 63 50 105 39 35 50 53 60 98 16 66 14 182 -2 188 -7 2 -12
12 -12 22 0 10 -5 22 -10 25 -6 4 -8 10 -6 13 2 4 6 32 7 62 2 30 9 66 16 80
7 14 13 44 13 67 0 34 -7 51 -33 80 -34 40 -87 118 -87 129 0 10 -58 64 -69
64 -44 0 -52 133 -12 189 20 28 28 31 74 32 133 2 132 2 128 29 -1 14 -26 113
-53 220 -27 107 -51 203 -53 212 -3 15 -21 86 -45 178 -9 34 -28 110 -36 140
-8 33 -44 159 -64 225 -12 39 -24 77 -27 87 -3 11 -31 23 -82 37 -87 24 -136
27 -147 9 -8 -13 -8 -15 -18 -193 -16 -280 -20 -343 -32 -550 -14 -220 -9
-262 37 -345 43 -75 61 -125 66 -179 l5 -56 -41 -23 c-46 -26 -131 -104 -131
-120 0 -6 -9 -14 -20 -17 -11 -3 -31 -21 -45 -40 -22 -28 -26 -46 -31 -131 -3
-55 -10 -103 -14 -107 -11 -12 -72 -11 -112 2 -52 16 -88 23 -208 35 -52 5
-191 16 -270 21 -99 7 -211 15 -263 19 -29 3 -90 8 -137 11 -47 3 -103 8 -125
11 -22 3 -72 7 -111 9 -39 3 -93 7 -120 9 -53 6 -184 16 -249 21 -22 1 -71 5
-110 9 -38 3 -99 8 -135 11 -166 11 -228 16 -260 21 -19 3 -42 5 -50 5 -8 0
-32 3 -52 5 l-37 6 43 41 c58 56 75 85 82 138 3 24 15 70 25 101 21 64 24 94
9 103 -5 3 -10 14 -10 22 0 22 -79 93 -103 93 -10 0 -51 22 -90 49 -82 55
-164 104 -189 114 -10 3 -19 16 -19 27 -2 24 -2 23 -19 78 -16 51 -71 102
-130 122 -22 7 -40 17 -40 22 0 4 -3 7 -7 6 -5 -1 -37 8 -73 20 -186 62 -314
70 -460 28 -52 -15 -103 -32 -114 -38 -11 -6 -85 -12 -165 -14 -187 -5 -208
-7 -223 -22 -6 -6 -17 -12 -24 -12 -7 0 -30 -15 -52 -32 -40 -33 -208 -154
-240 -173 -9 -5 -19 -12 -22 -15 -11 -11 -147 -109 -187 -134 -43 -26 -43 -26
-55 -6 -11 18 -141 120 -153 120 -2 0 -23 13 -47 28 -24 16 -70 46 -103 67
-33 21 -97 62 -142 91 -46 30 -85 54 -88 54 -3 0 -11 5 -18 11 -11 10 -400
259 -442 283 -10 6 -25 16 -32 21 -6 6 -55 37 -107 70 l-96 60 -1 55 c0 30 -2
66 -4 80 -4 37 -14 147 -19 215 -5 76 -11 91 -44 105 -15 6 -34 26 -43 44 -14
31 -14 34 2 44 10 6 19 24 21 39 3 29 39 53 103 68 43 11 157 56 243 96 56 27
105 49 110 50 4 0 14 6 22 13 8 6 56 31 105 53 50 23 124 57 165 76 98 46 215
98 215 97 0 -1 38 17 85 38 141 65 179 82 183 82 3 0 45 18 94 41 128 60 147
68 157 67 5 0 12 4 15 9 3 5 42 24 86 43 98 41 112 52 90 70 -32 26 -96 22
-195 -13z"/>
</g>
</svg>
